<?xml version="1.0" standalone="no"?>
<!DOCTYPE svg PUBLIC "-//W3C//DTD SVG 20010904//EN"
 "http://www.w3.org/TR/2001/REC-SVG-20010904/DTD/svg10.dtd">
<svg version="1.0" xmlns="http://www.w3.org/2000/svg"
 width="2251.000000pt" height="2251.000000pt" viewBox="0 0 2251.000000 2251.000000"
 preserveAspectRatio="xMidYMid meet">
<metadata>
Created by potrace 1.11, written by Peter Selinger 2001-2013
</metadata>
<g transform="translate(0.000000,2251.000000) scale(0.100000,-0.100000)"
fill="#000000" stroke="none">
<path d="M10810 18324 c-1322 -159 -2376 -1180 -2574 -2494 -32 -208 -36 -382
-36 -1437 l0 -1063 -460 0 -460 0 0 300 c0 276 -2 306 -20 361 -35 102 -88
173 -173 230 -139 92 -312 103 -459 28 -105 -54 -203 -184 -228 -303 -8 -37
-10 -566 -7 -1842 3 -1786 3 -1789 25 -1944 70 -484 181 -849 387 -1265 214
-433 457 -769 814 -1125 383 -382 761 -652 1256 -895 418 -206 831 -344 1295
-434 152 -29 452 -71 511 -71 l29 0 0 -645 0 -645 -1042 0 c-1137 0 -1124 0
-1230 -57 -72 -38 -149 -119 -186 -192 -120 -240 -9 -521 246 -620 l67 -26
2553 -3 c2755 -2 2622 -5 2736 49 78 36 160 120 203 206 34 68 38 85 41 172 3
79 0 107 -18 161 -44 132 -142 231 -279 284 -56 21 -59 21 -1128 24 l-1073 3
0 644 0 645 30 0 c50 0 328 38 475 65 1783 327 3216 1557 3665 3145 75 266
120 531 140 820 13 197 13 3459 0 3531 -31 168 -163 311 -325 353 -261 69
-520 -107 -555 -376 -5 -40 -10 -187 -10 -325 l0 -253 -455 0 -455 0 0 998 c0
1007 -7 1296 -35 1481 -78 519 -269 968 -594 1396 -89 118 -360 393 -481 489
-445 353 -956 565 -1516 631 -160 19 -514 18 -674 -1z m670 -899 c906 -153
1598 -868 1714 -1773 14 -107 16 -277 16 -1223 l0 -1099 -2055 0 -2055 0 0
1115 c0 1233 -1 1214 65 1470 61 239 170 469 323 684 80 113 256 299 367 389
297 240 650 392 1035 446 134 19 454 14 590 -9z m-3277 -5842 c4 -928 5 -942
63 -1215 186 -882 759 -1627 1564 -2035 289 -146 612 -246 960 -295 126 -17
603 -18 725 0 565 81 1057 290 1480 627 128 101 359 332 457 455 356 448 558
931 634 1515 13 98 17 276 21 963 l5 842 454 0 454 0 0 -1008 c0 -1053 -2
-1112 -45 -1342 -198 -1050 -950 -1964 -2025 -2460 -479 -221 -964 -342 -1530
-381 -193 -13 -520 -6 -729 16 -933 100 -1776 485 -2410 1100 -506 492 -848
1124 -955 1765 -38 229 -39 256 -43 1288 l-4 1022 460 0 460 0 4 -857z m5007
53 c0 -885 -2 -928 -61 -1166 -208 -840 -929 -1462 -1798 -1550 -1012 -101
-1967 583 -2200 1577 -49 211 -51 244 -51 1121 l0 822 2055 0 2055 0 0 -804z"/>
<path d="M10870 16165 l0 -555 -555 0 -555 0 0 -280 0 -280 555 0 555 0 2
-557 3 -558 280 0 280 0 3 558 2 557 555 0 555 0 0 280 0 280 -555 0 -555 0 0
555 0 555 -285 0 -285 0 0 -555z"/>
</g>
</svg>
